<svg xmlns="http://www.w3.org/2000/svg" width="710" height="128" viewBox="0 0 710 128" shape-rendering="crispEdges" role="img" aria-label="BugDex species sprites"><rect width="710" height="128" rx="14" fill="#070a14"/><rect x="18" y="18" width="72" height="72" rx="8.64" fill="#0b1020"/><rect x="45.7" y="29.1" width="5.54" height="5.54" fill="#62242e"/><rect x="51.2" y="29.1" width="5.54" height="5.54" fill="#62242e"/><rect x="56.8" y="29.1" width="5.54" height="5.54" fill="#62242e"/><rect x="40.2" y="34.6" width="5.54" height="5.54" fill="#62242e"/><rect x="45.7" y="34.6" width="5.54" height="5.54" fill="#ef4444"/><rect x="51.2" y="34.6" width="5.54" height="5.54" fill="#ef4444"/><rect x="56.8" y="34.6" width="5.54" height="5.54" fill="#ef4444"/><rect x="62.3" y="34.6" width="5.54" height="5.54" fill="#62242e"/><rect x="45.7" y="40.2" width="5.54" height="5.54" fill="#62242e"/><rect x="51.2" y="40.2" width="5.54" height="5.54" fill="#ef4444"/><rect x="56.8" y="40.2" width="5.54" height="5.54" fill="#62242e"/><rect x="34.6" y="45.7" width="5.54" height="5.54" fill="#62242e"/><rect x="45.7" y="45.7" width="5.54" height="5.54" fill="#62242e"/><rect x="51.2" y="45.7" width="5.54" height="5.54" fill="#ef4444"/><rect x="56.8" y="45.7" width="5.54" height="5.54" fill="#62242e"/><rect x="67.8" y="45.7" width="5.54" height="5.54" fill="#62242e"/><rect x="40.2" y="51.2" width="5.54" height="5.54" fill="#62242e"/><rect x="45.7" y="51.2" width="5.54" height="5.54" fill="#ef4444"/><rect x="51.2" y="51.2" width="5.54" height="5.54" fill="#ef4444"/><rect x="56.8" y="51.2" width="5.54" height="5.54" fill="#ef4444"/><rect x="62.3" y="51.2" width="5.54" height="5.54" fill="#62242e"/><rect x="34.6" y="56.8" width="5.54" height="5.54" fill="#62242e"/><rect x="40.2" y="56.8" width="5.54" height="5.54" fill="#62242e"/><rect x="45.7" y="56.8" width="5.54" height="5.54" fill="#ab3439"/><rect x="51.2" y="56.8" width="5.54" height="5.54" fill="#ab3439"/><rect x="56.8" y="56.8" width="5.54" height="5.54" fill="#ab3439"/><rect x="62.3" y="56.8" width="5.54" height="5.54" fill="#62242e"/><rect x="67.8" y="56.8" width="5.54" height="5.54" fill="#62242e"/><rect x="45.7" y="62.3" width="5.54" height="5.54" fill="#62242e"/><rect x="51.2" y="62.3" width="5.54" height="5.54" fill="#ab3439"/><rect x="56.8" y="62.3" width="5.54" height="5.54" fill="#62242e"/><rect x="34.6" y="67.8" width="5.54" height="5.54" fill="#62242e"/><rect x="45.7" y="67.8" width="5.54" height="5.54" fill="#62242e"/><rect x="51.2" y="67.8" width="5.54" height="5.54" fill="#ab3439"/><rect x="56.8" y="67.8" width="5.54" height="5.54" fill="#62242e"/><rect x="67.8" y="67.8" width="5.54" height="5.54" fill="#62242e"/><rect x="45.7" y="73.4" width="5.54" height="5.54" fill="#62242e"/><rect x="51.2" y="73.4" width="5.54" height="5.54" fill="#ab3439"/><rect x="56.8" y="73.4" width="5.54" height="5.54" fill="#62242e"/><rect x="45.7" y="78.9" width="5.54" height="5.54" fill="#62242e"/><rect x="51.2" y="78.9" width="5.54" height="5.54" fill="#ab3439"/><rect x="56.8" y="78.9" width="5.54" height="5.54" fill="#62242e"/><rect x="51.2" y="84.5" width="5.54" height="5.54" fill="#62242e"/><rect x="45.1" y="34.6" width="6.6" height="6.4" rx="1.4" fill="#f5f7ff"/><rect x="47.2" y="36.4" width="2.8" height="3.3" rx="0.7" fill="#0a0a12"/><rect x="47.5" y="36.6" width="1.0" height="1.0" fill="#ffffff"/><rect x="45.1" y="33.8" width="6.6" height="1.9" fill="#62242e"/><rect x="56.2" y="34.6" width="6.6" height="6.4" rx="1.4" fill="#f5f7ff"/><rect x="58.3" y="36.4" width="2.8" height="3.3" rx="0.7" fill="#0a0a12"/><rect x="58.5" y="36.6" width="1.0" height="1.0" fill="#ffffff"/><rect x="56.2" y="33.8" width="6.6" height="1.9" fill="#62242e"/><text x="54" y="105" fill="#9aa6c2" font-family="ui-monospace,Menlo,monospace" font-size="9" font-weight="700" text-anchor="middle">PARSELMOUTH</text><rect x="104" y="18" width="72" height="72" rx="8.64" fill="#0b1020"/><rect x="131.7" y="18.0" width="5.54" height="5.54" fill="#0e5053"/><rect x="142.8" y="18.0" width="5.54" height="5.54" fill="#0e5053"/><rect x="131.7" y="23.5" width="5.54" height="5.54" fill="#0e5053"/><rect x="137.2" y="23.5" width="5.54" height="5.54" fill="#0e5053"/><rect x="142.8" y="23.5" width="5.54" height="5.54" fill="#0e5053"/><rect x="126.2" y="29.1" width="5.54" height="5.54" fill="#0e5053"/><rect x="131.7" y="29.1" width="5.54" height="5.54" fill="#77d6cb"/><rect x="137.2" y="29.1" width="5.54" height="5.54" fill="#77d6cb"/><rect x="142.8" y="29.1" width="5.54" height="5.54" fill="#77d6cb"/><rect x="148.3" y="29.1" width="5.54" height="5.54" fill="#0e5053"/><rect x="126.2" y="34.6" width="5.54" height="5.54" fill="#0e5053"/><rect x="131.7" y="34.6" width="5.54" height="5.54" fill="#14b8a6"/><rect x="137.2" y="34.6" width="5.54" height="5.54" fill="#14b8a6"/><rect x="142.8" y="34.6" width="5.54" height="5.54" fill="#14b8a6"/><rect x="148.3" y="34.6" width="5.54" height="5.54" fill="#0e5053"/><rect x="120.6" y="40.2" width="5.54" height="5.54" fill="#0e5053"/><rect x="126.2" y="40.2" width="5.54" height="5.54" fill="#14b8a6"/><rect x="131.7" y="40.2" width="5.54" height="5.54" fill="#4cc9bb"/><rect x="137.2" y="40.2" width="5.54" height="5.54" fill="#4cc9bb"/><rect x="142.8" y="40.2" width="5.54" height="5.54" fill="#4cc9bb"/><rect x="148.3" y="40.2" width="5.54" height="5.54" fill="#14b8a6"/><rect x="153.8" y="40.2" width="5.54" height="5.54" fill="#0e5053"/><rect x="126.2" y="45.7" width="5.54" height="5.54" fill="#0e5053"/><rect x="131.7" y="45.7" width="5.54" height="5.54" fill="#4cc9bb"/><rect x="137.2" y="45.7" width="5.54" height="5.54" fill="#4cc9bb"/><rect x="142.8" y="45.7" width="5.54" height="5.54" fill="#4cc9bb"/><rect x="148.3" y="45.7" width="5.54" height="5.54" fill="#0e5053"/><rect x="120.6" y="51.2" width="5.54" height="5.54" fill="#0e5053"/><rect x="126.2" y="51.2" width="5.54" height="5.54" fill="#14b8a6"/><rect x="131.7" y="51.2" width="5.54" height="5.54" fill="#4cc9bb"/><rect x="137.2" y="51.2" width="5.54" height="5.54" fill="#4cc9bb"/><rect x="142.8" y="51.2" width="5.54" height="5.54" fill="#4cc9bb"/><rect x="148.3" y="51.2" width="5.54" height="5.54" fill="#14b8a6"/><rect x="153.8" y="51.2" width="5.54" height="5.54" fill="#0e5053"/><rect x="126.2" y="56.8" width="5.54" height="5.54" fill="#0e5053"/><rect x="131.7" y="56.8" width="5.54" height="5.54" fill="#4cc9bb"/><rect x="137.2" y="56.8" width="5.54" height="5.54" fill="#4cc9bb"/><rect x="142.8" y="56.8" width="5.54" height="5.54" fill="#4cc9bb"/><rect x="148.3" y="56.8" width="5.54" height="5.54" fill="#0e5053"/><rect x="120.6" y="62.3" width="5.54" height="5.54" fill="#0e5053"/><rect x="126.2" y="62.3" width="5.54" height="5.54" fill="#0e5053"/><rect x="131.7" y="62.3" width="5.54" height="5.54" fill="#4cc9bb"/><rect x="137.2" y="62.3" width="5.54" height="5.54" fill="#4cc9bb"/><rect x="142.8" y="62.3" width="5.54" height="5.54" fill="#4cc9bb"/><rect x="148.3" y="62.3" width="5.54" height="5.54" fill="#0e5053"/><rect x="153.8" y="62.3" width="5.54" height="5.54" fill="#0e5053"/><rect x="131.7" y="67.8" width="5.54" height="5.54" fill="#0e5053"/><rect x="137.2" y="67.8" width="5.54" height="5.54" fill="#11867e"/><rect x="142.8" y="67.8" width="5.54" height="5.54" fill="#0e5053"/><rect x="120.6" y="73.4" width="5.54" height="5.54" fill="#0e5053"/><rect x="131.7" y="73.4" width="5.54" height="5.54" fill="#0e5053"/><rect x="137.2" y="73.4" width="5.54" height="5.54" fill="#11867e"/><rect x="142.8" y="73.4" width="5.54" height="5.54" fill="#0e5053"/><rect x="153.8" y="73.4" width="5.54" height="5.54" fill="#0e5053"/><rect x="131.7" y="78.9" width="5.54" height="5.54" fill="#0e5053"/><rect x="137.2" y="78.9" width="5.54" height="5.54" fill="#11867e"/><rect x="142.8" y="78.9" width="5.54" height="5.54" fill="#0e5053"/><rect x="131.7" y="84.5" width="5.54" height="5.54" fill="#0e5053"/><rect x="137.2" y="84.5" width="5.54" height="5.54" fill="#0e5053"/><rect x="142.8" y="84.5" width="5.54" height="5.54" fill="#0e5053"/><rect x="133.1" y="36.0" width="2.8" height="2.8" fill="#0b1020"/><rect x="144.2" y="36.0" width="2.8" height="2.8" fill="#0b1020"/><text x="140" y="105" fill="#9aa6c2" font-family="ui-monospace,Menlo,monospace" font-size="9" font-weight="700" text-anchor="middle">HASHWRAITH</text><rect x="190" y="18" width="72" height="72" rx="8.64" fill="#0b1020"/><rect x="212.2" y="18.0" width="5.54" height="5.54" fill="#0e5053"/><rect x="223.2" y="18.0" width="5.54" height="5.54" fill="#0e5053"/><rect x="234.3" y="18.0" width="5.54" height="5.54" fill="#0e5053"/><rect x="223.2" y="23.5" width="5.54" height="5.54" fill="#0e5053"/><rect x="212.2" y="29.1" width="5.54" height="5.54" fill="#0e5053"/><rect x="217.7" y="29.1" width="5.54" height="5.54" fill="#0e5053"/><rect x="223.2" y="29.1" width="5.54" height="5.54" fill="#77d6cb"/><rect x="228.8" y="29.1" width="5.54" height="5.54" fill="#0e5053"/><rect x="234.3" y="29.1" width="5.54" height="5.54" fill="#0e5053"/><rect x="212.2" y="34.6" width="5.54" height="5.54" fill="#0e5053"/><rect x="217.7" y="34.6" width="5.54" height="5.54" fill="#14b8a6"/><rect x="223.2" y="34.6" width="5.54" height="5.54" fill="#14b8a6"/><rect x="228.8" y="34.6" width="5.54" height="5.54" fill="#14b8a6"/><rect x="234.3" y="34.6" width="5.54" height="5.54" fill="#0e5053"/><rect x="212.2" y="40.2" width="5.54" height="5.54" fill="#0e5053"/><rect x="217.7" y="40.2" width="5.54" height="5.54" fill="#4cc9bb"/><rect x="223.2" y="40.2" width="5.54" height="5.54" fill="#4cc9bb"/><rect x="228.8" y="40.2" width="5.54" height="5.54" fill="#4cc9bb"/><rect x="234.3" y="40.2" width="5.54" height="5.54" fill="#0e5053"/><rect x="217.7" y="45.7" width="5.54" height="5.54" fill="#0e5053"/><rect x="223.2" y="45.7" width="5.54" height="5.54" fill="#4cc9bb"/><rect x="228.8" y="45.7" width="5.54" height="5.54" fill="#0e5053"/><rect x="212.2" y="51.2" width="5.54" height="5.54" fill="#0e5053"/><rect x="217.7" y="51.2" width="5.54" height="5.54" fill="#4cc9bb"/><rect x="223.2" y="51.2" width="5.54" height="5.54" fill="#4cc9bb"/><rect x="228.8" y="51.2" width="5.54" height="5.54" fill="#4cc9bb"/><rect x="234.3" y="51.2" width="5.54" height="5.54" fill="#0e5053"/><rect x="206.6" y="56.8" width="5.54" height="5.54" fill="#0e5053"/><rect x="212.2" y="56.8" width="5.54" height="5.54" fill="#11867e"/><rect x="217.7" y="56.8" width="5.54" height="5.54" fill="#4cc9bb"/><rect x="223.2" y="56.8" width="5.54" height="5.54" fill="#4cc9bb"/><rect x="228.8" y="56.8" width="5.54" height="5.54" fill="#4cc9bb"/><rect x="234.3" y="56.8" width="5.54" height="5.54" fill="#11867e"/><rect x="239.8" y="56.8" width="5.54" height="5.54" fill="#0e5053"/><rect x="206.6" y="62.3" width="5.54" height="5.54" fill="#0e5053"/><rect x="212.2" y="62.3" width="5.54" height="5.54" fill="#11867e"/><rect x="217.7" y="62.3" width="5.54" height="5.54" fill="#4cc9bb"/><rect x="223.2" y="62.3" width="5.54" height="5.54" fill="#4cc9bb"/><rect x="228.8" y="62.3" width="5.54" height="5.54" fill="#4cc9bb"/><rect x="234.3" y="62.3" width="5.54" height="5.54" fill="#11867e"/><rect x="239.8" y="62.3" width="5.54" height="5.54" fill="#0e5053"/><rect x="206.6" y="67.8" width="5.54" height="5.54" fill="#0e5053"/><rect x="212.2" y="67.8" width="5.54" height="5.54" fill="#11867e"/><rect x="217.7" y="67.8" width="5.54" height="5.54" fill="#11867e"/><rect x="223.2" y="67.8" width="5.54" height="5.54" fill="#11867e"/><rect x="228.8" y="67.8" width="5.54" height="5.54" fill="#11867e"/><rect x="234.3" y="67.8" width="5.54" height="5.54" fill="#11867e"/><rect x="239.8" y="67.8" width="5.54" height="5.54" fill="#0e5053"/><rect x="212.2" y="73.4" width="5.54" height="5.54" fill="#0e5053"/><rect x="217.7" y="73.4" width="5.54" height="5.54" fill="#11867e"/><rect x="223.2" y="73.4" width="5.54" height="5.54" fill="#11867e"/><rect x="228.8" y="73.4" width="5.54" height="5.54" fill="#11867e"/><rect x="234.3" y="73.4" width="5.54" height="5.54" fill="#0e5053"/><rect x="212.2" y="78.9" width="5.54" height="5.54" fill="#0e5053"/><rect x="217.7" y="78.9" width="5.54" height="5.54" fill="#0e5053"/><rect x="223.2" y="78.9" width="5.54" height="5.54" fill="#0e5053"/><rect x="228.8" y="78.9" width="5.54" height="5.54" fill="#0e5053"/><rect x="234.3" y="78.9" width="5.54" height="5.54" fill="#0e5053"/><rect x="212.2" y="84.5" width="5.54" height="5.54" fill="#0e5053"/><rect x="234.3" y="84.5" width="5.54" height="5.54" fill="#0e5053"/><rect x="217.1" y="34.6" width="6.6" height="6.4" rx="1.4" fill="#f5f7ff"/><rect x="219.2" y="36.4" width="2.8" height="3.3" rx="0.7" fill="#0a0a12"/><rect x="219.5" y="36.6" width="1.0" height="1.0" fill="#ffffff"/><rect x="228.2" y="34.6" width="6.6" height="6.4" rx="1.4" fill="#f5f7ff"/><rect x="230.3" y="36.4" width="2.8" height="3.3" rx="0.7" fill="#0a0a12"/><rect x="230.5" y="36.6" width="1.0" height="1.0" fill="#ffffff"/><text x="226" y="105" fill="#9aa6c2" font-family="ui-monospace,Menlo,monospace" font-size="9" font-weight="700" text-anchor="middle">GHOSTKEY</text><rect x="276" y="18" width="72" height="72" rx="8.64" fill="#0b1020"/><rect x="303.7" y="18.0" width="5.54" height="5.54" fill="#3c2d71"/><rect x="314.8" y="18.0" width="5.54" height="5.54" fill="#3c2d71"/><rect x="303.7" y="23.5" width="5.54" height="5.54" fill="#3c2d71"/><rect x="314.8" y="23.5" width="5.54" height="5.54" fill="#3c2d71"/><rect x="303.7" y="29.1" width="5.54" height="5.54" fill="#3c2d71"/><rect x="309.2" y="29.1" width="5.54" height="5.54" fill="#3c2d71"/><rect x="314.8" y="29.1" width="5.54" height="5.54" fill="#3c2d71"/><rect x="298.2" y="34.6" width="5.54" height="5.54" fill="#3c2d71"/><rect x="303.7" y="34.6" width="5.54" height="5.54" fill="#8b5cf6"/><rect x="309.2" y="34.6" width="5.54" height="5.54" fill="#8b5cf6"/><rect x="314.8" y="34.6" width="5.54" height="5.54" fill="#8b5cf6"/><rect x="320.3" y="34.6" width="5.54" height="5.54" fill="#3c2d71"/><rect x="303.7" y="40.2" width="5.54" height="5.54" fill="#3c2d71"/><rect x="309.2" y="40.2" width="5.54" height="5.54" fill="#8b5cf6"/><rect x="314.8" y="40.2" width="5.54" height="5.54" fill="#3c2d71"/><rect x="292.6" y="45.7" width="5.54" height="5.54" fill="#3c2d71"/><rect x="303.7" y="45.7" width="5.54" height="5.54" fill="#3c2d71"/><rect x="309.2" y="45.7" width="5.54" height="5.54" fill="#8b5cf6"/><rect x="314.8" y="45.7" width="5.54" height="5.54" fill="#3c2d71"/><rect x="325.8" y="45.7" width="5.54" height="5.54" fill="#3c2d71"/><rect x="298.2" y="51.2" width="5.54" height="5.54" fill="#3c2d71"/><rect x="303.7" y="51.2" width="5.54" height="5.54" fill="#8b5cf6"/><rect x="309.2" y="51.2" width="5.54" height="5.54" fill="#8b5cf6"/><rect x="314.8" y="51.2" width="5.54" height="5.54" fill="#8b5cf6"/><rect x="320.3" y="51.2" width="5.54" height="5.54" fill="#3c2d71"/><rect x="292.6" y="56.8" width="5.54" height="5.54" fill="#3c2d71"/><rect x="298.2" y="56.8" width="5.54" height="5.54" fill="#3c2d71"/><rect x="303.7" y="56.8" width="5.54" height="5.54" fill="#6545b6"/><rect x="309.2" y="56.8" width="5.54" height="5.54" fill="#6545b6"/><rect x="314.8" y="56.8" width="5.54" height="5.54" fill="#6545b6"/><rect x="320.3" y="56.8" width="5.54" height="5.54" fill="#3c2d71"/><rect x="325.8" y="56.8" width="5.54" height="5.54" fill="#3c2d71"/><rect x="303.7" y="62.3" width="5.54" height="5.54" fill="#3c2d71"/><rect x="309.2" y="62.3" width="5.54" height="5.54" fill="#6545b6"/><rect x="314.8" y="62.3" width="5.54" height="5.54" fill="#3c2d71"/><rect x="292.6" y="67.8" width="5.54" height="5.54" fill="#3c2d71"/><rect x="303.7" y="67.8" width="5.54" height="5.54" fill="#3c2d71"/><rect x="309.2" y="67.8" width="5.54" height="5.54" fill="#6545b6"/><rect x="314.8" y="67.8" width="5.54" height="5.54" fill="#3c2d71"/><rect x="325.8" y="67.8" width="5.54" height="5.54" fill="#3c2d71"/><rect x="303.7" y="73.4" width="5.54" height="5.54" fill="#3c2d71"/><rect x="309.2" y="73.4" width="5.54" height="5.54" fill="#6545b6"/><rect x="314.8" y="73.4" width="5.54" height="5.54" fill="#3c2d71"/><rect x="303.7" y="78.9" width="5.54" height="5.54" fill="#3c2d71"/><rect x="309.2" y="78.9" width="5.54" height="5.54" fill="#6545b6"/><rect x="314.8" y="78.9" width="5.54" height="5.54" fill="#3c2d71"/><rect x="309.2" y="84.5" width="5.54" height="5.54" fill="#3c2d71"/><rect x="305.1" y="36.0" width="2.8" height="2.8" fill="#0b1020"/><rect x="316.2" y="36.0" width="2.8" height="2.8" fill="#0b1020"/><text x="312" y="105" fill="#9aa6c2" font-family="ui-monospace,Menlo,monospace" font-size="9" font-weight="700" text-anchor="middle">VOIDLING</text><rect x="362" y="18" width="72" height="72" rx="8.64" fill="#0b1020"/><rect x="395.2" y="18.0" width="5.54" height="5.54" fill="#1d3b71"/><rect x="384.2" y="23.5" width="5.54" height="5.54" fill="#1d3b71"/><rect x="395.2" y="23.5" width="5.54" height="5.54" fill="#1d3b71"/><rect x="406.3" y="23.5" width="5.54" height="5.54" fill="#1d3b71"/><rect x="389.7" y="29.1" width="5.54" height="5.54" fill="#1d3b71"/><rect x="395.2" y="29.1" width="5.54" height="5.54" fill="#8db7fa"/><rect x="400.8" y="29.1" width="5.54" height="5.54" fill="#1d3b71"/><rect x="384.2" y="34.6" width="5.54" height="5.54" fill="#1d3b71"/><rect x="389.7" y="34.6" width="5.54" height="5.54" fill="#3b82f6"/><rect x="395.2" y="34.6" width="5.54" height="5.54" fill="#3b82f6"/><rect x="400.8" y="34.6" width="5.54" height="5.54" fill="#3b82f6"/><rect x="406.3" y="34.6" width="5.54" height="5.54" fill="#1d3b71"/><rect x="389.7" y="40.2" width="5.54" height="5.54" fill="#1d3b71"/><rect x="395.2" y="40.2" width="5.54" height="5.54" fill="#3b82f6"/><rect x="400.8" y="40.2" width="5.54" height="5.54" fill="#1d3b71"/><rect x="378.6" y="45.7" width="5.54" height="5.54" fill="#1d3b71"/><rect x="389.7" y="45.7" width="5.54" height="5.54" fill="#1d3b71"/><rect x="395.2" y="45.7" width="5.54" height="5.54" fill="#3b82f6"/><rect x="400.8" y="45.7" width="5.54" height="5.54" fill="#1d3b71"/><rect x="411.8" y="45.7" width="5.54" height="5.54" fill="#1d3b71"/><rect x="384.2" y="51.2" width="5.54" height="5.54" fill="#1d3b71"/><rect x="389.7" y="51.2" width="5.54" height="5.54" fill="#3b82f6"/><rect x="395.2" y="51.2" width="5.54" height="5.54" fill="#3b82f6"/><rect x="400.8" y="51.2" width="5.54" height="5.54" fill="#3b82f6"/><rect x="406.3" y="51.2" width="5.54" height="5.54" fill="#1d3b71"/><rect x="378.6" y="56.8" width="5.54" height="5.54" fill="#1d3b71"/><rect x="384.2" y="56.8" width="5.54" height="5.54" fill="#1d3b71"/><rect x="389.7" y="56.8" width="5.54" height="5.54" fill="#2d60b6"/><rect x="395.2" y="56.8" width="5.54" height="5.54" fill="#2d60b6"/><rect x="400.8" y="56.8" width="5.54" height="5.54" fill="#2d60b6"/><rect x="406.3" y="56.8" width="5.54" height="5.54" fill="#1d3b71"/><rect x="411.8" y="56.8" width="5.54" height="5.54" fill="#1d3b71"/><rect x="389.7" y="62.3" width="5.54" height="5.54" fill="#1d3b71"/><rect x="395.2" y="62.3" width="5.54" height="5.54" fill="#2d60b6"/><rect x="400.8" y="62.3" width="5.54" height="5.54" fill="#1d3b71"/><rect x="378.6" y="67.8" width="5.54" height="5.54" fill="#1d3b71"/><rect x="389.7" y="67.8" width="5.54" height="5.54" fill="#1d3b71"/><rect x="395.2" y="67.8" width="5.54" height="5.54" fill="#2d60b6"/><rect x="400.8" y="67.8" width="5.54" height="5.54" fill="#1d3b71"/><rect x="411.8" y="67.8" width="5.54" height="5.54" fill="#1d3b71"/><rect x="389.7" y="73.4" width="5.54" height="5.54" fill="#1d3b71"/><rect x="395.2" y="73.4" width="5.54" height="5.54" fill="#2d60b6"/><rect x="400.8" y="73.4" width="5.54" height="5.54" fill="#1d3b71"/><rect x="389.7" y="78.9" width="5.54" height="5.54" fill="#1d3b71"/><rect x="395.2" y="78.9" width="5.54" height="5.54" fill="#2d60b6"/><rect x="400.8" y="78.9" width="5.54" height="5.54" fill="#1d3b71"/><rect x="395.2" y="84.5" width="5.54" height="5.54" fill="#1d3b71"/><rect x="389.1" y="34.6" width="6.6" height="6.4" rx="1.4" fill="#f5f7ff"/><rect x="391.2" y="36.4" width="2.8" height="3.3" rx="0.7" fill="#0a0a12"/><rect x="391.5" y="36.6" width="1.0" height="1.0" fill="#ffffff"/><rect x="400.2" y="34.6" width="6.6" height="6.4" rx="1.4" fill="#f5f7ff"/><rect x="402.3" y="36.4" width="2.8" height="3.3" rx="0.7" fill="#0a0a12"/><rect x="402.5" y="36.6" width="1.0" height="1.0" fill="#ffffff"/><text x="398" y="105" fill="#9aa6c2" font-family="ui-monospace,Menlo,monospace" font-size="9" font-weight="700" text-anchor="middle">MOONGAZE</text><rect x="448" y="18" width="72" height="72" rx="8.64" fill="#0b1020"/><rect x="470.2" y="18.0" width="5.54" height="5.54" fill="#593716"/><rect x="481.2" y="18.0" width="5.54" height="5.54" fill="#593716"/><rect x="492.3" y="18.0" width="5.54" height="5.54" fill="#593716"/><rect x="475.7" y="23.5" width="5.54" height="5.54" fill="#593716"/><rect x="481.2" y="23.5" width="5.54" height="5.54" fill="#e9b06f"/><rect x="486.8" y="23.5" width="5.54" height="5.54" fill="#593716"/><rect x="470.2" y="29.1" width="5.54" height="5.54" fill="#593716"/><rect x="475.7" y="29.1" width="5.54" height="5.54" fill="#e9b06f"/><rect x="481.2" y="29.1" width="5.54" height="5.54" fill="#e9b06f"/><rect x="486.8" y="29.1" width="5.54" height="5.54" fill="#e9b06f"/><rect x="492.3" y="29.1" width="5.54" height="5.54" fill="#593716"/><rect x="470.2" y="34.6" width="5.54" height="5.54" fill="#593716"/><rect x="475.7" y="34.6" width="5.54" height="5.54" fill="#d97706"/><rect x="481.2" y="34.6" width="5.54" height="5.54" fill="#d97706"/><rect x="486.8" y="34.6" width="5.54" height="5.54" fill="#d97706"/><rect x="492.3" y="34.6" width="5.54" height="5.54" fill="#593716"/><rect x="470.2" y="40.2" width="5.54" height="5.54" fill="#593716"/><rect x="475.7" y="40.2" width="5.54" height="5.54" fill="#d97706"/><rect x="481.2" y="40.2" width="5.54" height="5.54" fill="#d97706"/><rect x="486.8" y="40.2" width="5.54" height="5.54" fill="#d97706"/><rect x="492.3" y="40.2" width="5.54" height="5.54" fill="#593716"/><rect x="470.2" y="45.7" width="5.54" height="5.54" fill="#593716"/><rect x="475.7" y="45.7" width="5.54" height="5.54" fill="#d97706"/><rect x="481.2" y="45.7" width="5.54" height="5.54" fill="#d97706"/><rect x="486.8" y="45.7" width="5.54" height="5.54" fill="#d97706"/><rect x="492.3" y="45.7" width="5.54" height="5.54" fill="#593716"/><rect x="470.2" y="51.2" width="5.54" height="5.54" fill="#593716"/><rect x="475.7" y="51.2" width="5.54" height="5.54" fill="#d97706"/><rect x="481.2" y="51.2" width="5.54" height="5.54" fill="#d97706"/><rect x="486.8" y="51.2" width="5.54" height="5.54" fill="#d97706"/><rect x="492.3" y="51.2" width="5.54" height="5.54" fill="#593716"/><rect x="470.2" y="56.8" width="5.54" height="5.54" fill="#593716"/><rect x="475.7" y="56.8" width="5.54" height="5.54" fill="#9b580e"/><rect x="481.2" y="56.8" width="5.54" height="5.54" fill="#9b580e"/><rect x="486.8" y="56.8" width="5.54" height="5.54" fill="#9b580e"/><rect x="492.3" y="56.8" width="5.54" height="5.54" fill="#593716"/><rect x="470.2" y="62.3" width="5.54" height="5.54" fill="#593716"/><rect x="475.7" y="62.3" width="5.54" height="5.54" fill="#9b580e"/><rect x="481.2" y="62.3" width="5.54" height="5.54" fill="#9b580e"/><rect x="486.8" y="62.3" width="5.54" height="5.54" fill="#9b580e"/><rect x="492.3" y="62.3" width="5.54" height="5.54" fill="#593716"/><rect x="475.7" y="67.8" width="5.54" height="5.54" fill="#593716"/><rect x="481.2" y="67.8" width="5.54" height="5.54" fill="#9b580e"/><rect x="486.8" y="67.8" width="5.54" height="5.54" fill="#593716"/><rect x="475.7" y="73.4" width="5.54" height="5.54" fill="#593716"/><rect x="481.2" y="73.4" width="5.54" height="5.54" fill="#9b580e"/><rect x="486.8" y="73.4" width="5.54" height="5.54" fill="#593716"/><rect x="475.7" y="78.9" width="5.54" height="5.54" fill="#593716"/><rect x="481.2" y="78.9" width="5.54" height="5.54" fill="#9b580e"/><rect x="486.8" y="78.9" width="5.54" height="5.54" fill="#593716"/><rect x="475.7" y="84.5" width="5.54" height="5.54" fill="#593716"/><rect x="481.2" y="84.5" width="5.54" height="5.54" fill="#593716"/><rect x="486.8" y="84.5" width="5.54" height="5.54" fill="#593716"/><rect x="475.1" y="34.6" width="6.6" height="6.4" rx="1.4" fill="#f5f7ff"/><rect x="477.2" y="36.4" width="2.8" height="3.3" rx="0.7" fill="#0a0a12"/><rect x="477.5" y="36.6" width="1.0" height="1.0" fill="#ffffff"/><rect x="475.1" y="33.8" width="6.6" height="1.9" fill="#593716"/><rect x="486.2" y="34.6" width="6.6" height="6.4" rx="1.4" fill="#f5f7ff"/><rect x="488.3" y="36.4" width="2.8" height="3.3" rx="0.7" fill="#0a0a12"/><rect x="488.5" y="36.6" width="1.0" height="1.0" fill="#ffffff"/><rect x="486.2" y="33.8" width="6.6" height="1.9" fill="#593716"/><text x="484" y="105" fill="#9aa6c2" font-family="ui-monospace,Menlo,monospace" font-size="9" font-weight="700" text-anchor="middle">DEBUGMON</text><rect x="534" y="18" width="72" height="72" rx="8.64" fill="#0b1020"/><rect x="556.2" y="18.0" width="5.54" height="5.54" fill="#0e5053"/><rect x="567.2" y="18.0" width="5.54" height="5.54" fill="#0e5053"/><rect x="578.3" y="18.0" width="5.54" height="5.54" fill="#0e5053"/><rect x="561.7" y="23.5" width="5.54" height="5.54" fill="#0e5053"/><rect x="567.2" y="23.5" width="5.54" height="5.54" fill="#77d6cb"/><rect x="572.8" y="23.5" width="5.54" height="5.54" fill="#0e5053"/><rect x="556.2" y="29.1" width="5.54" height="5.54" fill="#0e5053"/><rect x="561.7" y="29.1" width="5.54" height="5.54" fill="#77d6cb"/><rect x="567.2" y="29.1" width="5.54" height="5.54" fill="#77d6cb"/><rect x="572.8" y="29.1" width="5.54" height="5.54" fill="#77d6cb"/><rect x="578.3" y="29.1" width="5.54" height="5.54" fill="#0e5053"/><rect x="556.2" y="34.6" width="5.54" height="5.54" fill="#0e5053"/><rect x="561.7" y="34.6" width="5.54" height="5.54" fill="#14b8a6"/><rect x="567.2" y="34.6" width="5.54" height="5.54" fill="#14b8a6"/><rect x="572.8" y="34.6" width="5.54" height="5.54" fill="#14b8a6"/><rect x="578.3" y="34.6" width="5.54" height="5.54" fill="#0e5053"/><rect x="550.6" y="40.2" width="5.54" height="5.54" fill="#0e5053"/><rect x="556.2" y="40.2" width="5.54" height="5.54" fill="#14b8a6"/><rect x="561.7" y="40.2" width="5.54" height="5.54" fill="#14b8a6"/><rect x="567.2" y="40.2" width="5.54" height="5.54" fill="#14b8a6"/><rect x="572.8" y="40.2" width="5.54" height="5.54" fill="#14b8a6"/><rect x="578.3" y="40.2" width="5.54" height="5.54" fill="#14b8a6"/><rect x="583.8" y="40.2" width="5.54" height="5.54" fill="#0e5053"/><rect x="556.2" y="45.7" width="5.54" height="5.54" fill="#0e5053"/><rect x="561.7" y="45.7" width="5.54" height="5.54" fill="#14b8a6"/><rect x="567.2" y="45.7" width="5.54" height="5.54" fill="#14b8a6"/><rect x="572.8" y="45.7" width="5.54" height="5.54" fill="#14b8a6"/><rect x="578.3" y="45.7" width="5.54" height="5.54" fill="#0e5053"/><rect x="550.6" y="51.2" width="5.54" height="5.54" fill="#0e5053"/><rect x="556.2" y="51.2" width="5.54" height="5.54" fill="#14b8a6"/><rect x="561.7" y="51.2" width="5.54" height="5.54" fill="#14b8a6"/><rect x="567.2" y="51.2" width="5.54" height="5.54" fill="#14b8a6"/><rect x="572.8" y="51.2" width="5.54" height="5.54" fill="#14b8a6"/><rect x="578.3" y="51.2" width="5.54" height="5.54" fill="#14b8a6"/><rect x="583.8" y="51.2" width="5.54" height="5.54" fill="#0e5053"/><rect x="556.2" y="56.8" width="5.54" height="5.54" fill="#0e5053"/><rect x="561.7" y="56.8" width="5.54" height="5.54" fill="#11867e"/><rect x="567.2" y="56.8" width="5.54" height="5.54" fill="#11867e"/><rect x="572.8" y="56.8" width="5.54" height="5.54" fill="#11867e"/><rect x="578.3" y="56.8" width="5.54" height="5.54" fill="#0e5053"/><rect x="550.6" y="62.3" width="5.54" height="5.54" fill="#0e5053"/><rect x="556.2" y="62.3" width="5.54" height="5.54" fill="#0e5053"/><rect x="561.7" y="62.3" width="5.54" height="5.54" fill="#11867e"/><rect x="567.2" y="62.3" width="5.54" height="5.54" fill="#11867e"/><rect x="572.8" y="62.3" width="5.54" height="5.54" fill="#11867e"/><rect x="578.3" y="62.3" width="5.54" height="5.54" fill="#0e5053"/><rect x="583.8" y="62.3" width="5.54" height="5.54" fill="#0e5053"/><rect x="561.7" y="67.8" width="5.54" height="5.54" fill="#0e5053"/><rect x="567.2" y="67.8" width="5.54" height="5.54" fill="#11867e"/><rect x="572.8" y="67.8" width="5.54" height="5.54" fill="#0e5053"/><rect x="550.6" y="73.4" width="5.54" height="5.54" fill="#0e5053"/><rect x="561.7" y="73.4" width="5.54" height="5.54" fill="#0e5053"/><rect x="567.2" y="73.4" width="5.54" height="5.54" fill="#11867e"/><rect x="572.8" y="73.4" width="5.54" height="5.54" fill="#0e5053"/><rect x="583.8" y="73.4" width="5.54" height="5.54" fill="#0e5053"/><rect x="561.7" y="78.9" width="5.54" height="5.54" fill="#0e5053"/><rect x="567.2" y="78.9" width="5.54" height="5.54" fill="#11867e"/><rect x="572.8" y="78.9" width="5.54" height="5.54" fill="#0e5053"/><rect x="561.7" y="84.5" width="5.54" height="5.54" fill="#0e5053"/><rect x="567.2" y="84.5" width="5.54" height="5.54" fill="#0e5053"/><rect x="572.8" y="84.5" width="5.54" height="5.54" fill="#0e5053"/><rect x="561.1" y="34.6" width="6.6" height="6.4" rx="1.4" fill="#f5f7ff"/><rect x="563.2" y="36.4" width="2.8" height="3.3" rx="0.7" fill="#0a0a12"/><rect x="563.5" y="36.6" width="1.0" height="1.0" fill="#ffffff"/><rect x="561.1" y="33.8" width="6.6" height="1.9" fill="#0e5053"/><rect x="572.2" y="34.6" width="6.6" height="6.4" rx="1.4" fill="#f5f7ff"/><rect x="574.3" y="36.4" width="2.8" height="3.3" rx="0.7" fill="#0a0a12"/><rect x="574.5" y="36.6" width="1.0" height="1.0" fill="#ffffff"/><rect x="572.2" y="33.8" width="6.6" height="1.9" fill="#0e5053"/><text x="570" y="105" fill="#9aa6c2" font-family="ui-monospace,Menlo,monospace" font-size="9" font-weight="700" text-anchor="middle">RANDOGHAST</text><rect x="620" y="18" width="72" height="72" rx="8.64" fill="#0b1020"/><rect x="647.7" y="29.1" width="5.54" height="5.54" fill="#61254e"/><rect x="653.2" y="29.1" width="5.54" height="5.54" fill="#61254e"/><rect x="658.8" y="29.1" width="5.54" height="5.54" fill="#61254e"/><rect x="642.2" y="34.6" width="5.54" height="5.54" fill="#61254e"/><rect x="647.7" y="34.6" width="5.54" height="5.54" fill="#ec4899"/><rect x="653.2" y="34.6" width="5.54" height="5.54" fill="#ec4899"/><rect x="658.8" y="34.6" width="5.54" height="5.54" fill="#ec4899"/><rect x="664.3" y="34.6" width="5.54" height="5.54" fill="#61254e"/><rect x="647.7" y="40.2" width="5.54" height="5.54" fill="#61254e"/><rect x="653.2" y="40.2" width="5.54" height="5.54" fill="#ec4899"/><rect x="658.8" y="40.2" width="5.54" height="5.54" fill="#61254e"/><rect x="636.6" y="45.7" width="5.54" height="5.54" fill="#61254e"/><rect x="647.7" y="45.7" width="5.54" height="5.54" fill="#61254e"/><rect x="653.2" y="45.7" width="5.54" height="5.54" fill="#ec4899"/><rect x="658.8" y="45.7" width="5.54" height="5.54" fill="#61254e"/><rect x="669.8" y="45.7" width="5.54" height="5.54" fill="#61254e"/><rect x="642.2" y="51.2" width="5.54" height="5.54" fill="#61254e"/><rect x="647.7" y="51.2" width="5.54" height="5.54" fill="#ec4899"/><rect x="653.2" y="51.2" width="5.54" height="5.54" fill="#ec4899"/><rect x="658.8" y="51.2" width="5.54" height="5.54" fill="#ec4899"/><rect x="664.3" y="51.2" width="5.54" height="5.54" fill="#61254e"/><rect x="636.6" y="56.8" width="5.54" height="5.54" fill="#61254e"/><rect x="642.2" y="56.8" width="5.54" height="5.54" fill="#61254e"/><rect x="647.7" y="56.8" width="5.54" height="5.54" fill="#a93775"/><rect x="653.2" y="56.8" width="5.54" height="5.54" fill="#a93775"/><rect x="658.8" y="56.8" width="5.54" height="5.54" fill="#a93775"/><rect x="664.3" y="56.8" width="5.54" height="5.54" fill="#61254e"/><rect x="669.8" y="56.8" width="5.54" height="5.54" fill="#61254e"/><rect x="647.7" y="62.3" width="5.54" height="5.54" fill="#61254e"/><rect x="653.2" y="62.3" width="5.54" height="5.54" fill="#a93775"/><rect x="658.8" y="62.3" width="5.54" height="5.54" fill="#61254e"/><rect x="636.6" y="67.8" width="5.54" height="5.54" fill="#61254e"/><rect x="647.7" y="67.8" width="5.54" height="5.54" fill="#61254e"/><rect x="653.2" y="67.8" width="5.54" height="5.54" fill="#a93775"/><rect x="658.8" y="67.8" width="5.54" height="5.54" fill="#61254e"/><rect x="669.8" y="67.8" width="5.54" height="5.54" fill="#61254e"/><rect x="647.7" y="73.4" width="5.54" height="5.54" fill="#61254e"/><rect x="653.2" y="73.4" width="5.54" height="5.54" fill="#a93775"/><rect x="658.8" y="73.4" width="5.54" height="5.54" fill="#61254e"/><rect x="647.7" y="78.9" width="5.54" height="5.54" fill="#61254e"/><rect x="653.2" y="78.9" width="5.54" height="5.54" fill="#a93775"/><rect x="658.8" y="78.9" width="5.54" height="5.54" fill="#61254e"/><rect x="653.2" y="84.5" width="5.54" height="5.54" fill="#61254e"/><rect x="647.1" y="34.6" width="6.6" height="6.4" rx="1.4" fill="#f5f7ff"/><rect x="649.2" y="36.4" width="2.8" height="3.3" rx="0.7" fill="#0a0a12"/><rect x="649.5" y="36.6" width="1.0" height="1.0" fill="#ffffff"/><rect x="647.1" y="33.8" width="6.6" height="1.9" fill="#61254e"/><rect x="658.2" y="34.6" width="6.6" height="6.4" rx="1.4" fill="#f5f7ff"/><rect x="660.3" y="36.4" width="2.8" height="3.3" rx="0.7" fill="#0a0a12"/><rect x="660.5" y="36.6" width="1.0" height="1.0" fill="#ffffff"/><rect x="658.2" y="33.8" width="6.6" height="1.9" fill="#61254e"/><text x="656" y="105" fill="#9aa6c2" font-family="ui-monospace,Menlo,monospace" font-size="9" font-weight="700" text-anchor="middle">SNUKRA</text></svg>
